<svg width="112" height="112" viewBox="0 0 112 112" fill="none" xmlns="http://www.w3.org/2000/svg">
<circle cx="54.303" cy="54.303" r="52.803" stroke="#FBFBFB" stroke-width="3"/>
<g clip-path="url(#clip0)">
<path d="M54.8688 24.8889C46.4803 24.8889 39.6558 31.7135 39.6558 40.102C39.6558 48.4905 46.4803 55.3151 54.8688 55.3151C63.2573 55.3151 70.0819 48.4905 70.0819 40.102C70.0819 31.7135 63.2573 24.8889 54.8688 24.8889Z" fill="#FBFBFB"/>
<path d="M73.7968 65.2536C69.6318 61.0246 64.1103 58.6957 58.2495 58.6957H51.4881C45.6274 58.6957 40.1058 61.0246 35.9408 65.2536C31.7962 69.4619 29.5137 75.0168 29.5137 80.8955C29.5137 81.829 30.2705 82.5858 31.204 82.5858H78.5336C79.4671 82.5858 80.2239 81.829 80.2239 80.8955C80.2239 75.0168 77.9414 69.4619 73.7968 65.2536Z" fill="#FBFBFB"/>
</g>
<defs>
<clipPath id="clip0">
<rect width="57.697" height="57.697" fill="white" transform="translate(26.0203 24.8889)"/>
</clipPath>
</defs>
</svg>
