<svg width="36" height="36" viewBox="0 0 36 36" fill="none" xmlns="http://www.w3.org/2000/svg">
<path d="M23.926 6H6.37841C5.06659 6 4 7.07218 4 8.3897V21.1349C4 22.453 5.06659 23.5246 6.37841 23.5246C8.04278 23.5246 8.26635 23.5246 8.26635 23.5246H8.75683V27.5075C8.75683 28.218 9.61411 28.5691 10.1099 28.0709C12.3234 25.8464 10.769 27.4087 14.4022 23.7583C14.5512 23.6085 14.7521 23.5246 14.963 23.5246H23.9259C25.2372 23.5246 26.3043 22.453 26.3043 21.1349C26.3043 13.697 26.3043 15.8456 26.3043 8.3897C26.3044 7.07218 25.2373 6 23.926 6ZM7.96408 10.7794H19.1692C19.6073 10.7794 19.962 11.1357 19.962 11.576C19.962 12.0162 19.6073 12.3725 19.1692 12.3725H7.96408C7.52592 12.3725 7.17127 12.0162 7.17127 11.576C7.17127 11.1357 7.52592 10.7794 7.96408 10.7794ZM15.9979 18.7452H7.96408C7.52592 18.7452 7.17127 18.3889 7.17127 17.9486C7.17127 17.5084 7.52592 17.1521 7.96408 17.1521H15.9979C16.436 17.1521 16.7907 17.5084 16.7907 17.9486C16.7907 18.3889 16.436 18.7452 15.9979 18.7452ZM22.3404 15.5589H7.96408C7.52592 15.5589 7.17127 15.2025 7.17127 14.7623C7.17127 14.3221 7.52592 13.9657 7.96408 13.9657H22.3404C22.7785 13.9657 23.1332 14.3221 23.1332 14.7623C23.1332 15.2025 22.7785 15.5589 22.3404 15.5589Z" fill="#2767BC"/>
<path d="M28.587 9.52148H27.7933V21.4697C27.7933 23.6657 25.9783 25.4525 23.7607 25.4525H15.1074L13.3914 27.0349H20.2101L24.8007 31.5914C25.3051 32.0909 26.1738 31.7404 26.1738 31.0283V27.0349H28.5869C29.9176 27.0349 31.0001 25.9736 31.0001 24.6559V11.9112C31.0001 10.5934 29.9177 9.52148 28.587 9.52148Z" fill="#2767BC"/>
</svg>
