<svg width="22" height="22" viewBox="0 0 22 22" fill="none" xmlns="http://www.w3.org/2000/svg">
<path d="M20.5382 1.6565e-06H0.924632C0.578483 -0.000652693 0.261343 0.192598 0.103209 0.500359C-0.0571057 0.812264 -0.0289688 1.18786 0.175842 1.47272L7.36144 11.5952C7.36384 11.5987 7.36645 11.602 7.36885 11.6055C7.62994 11.958 7.77128 12.385 7.77193 12.8237V21.0765C7.7704 21.3208 7.86637 21.5557 8.03847 21.7291C8.21078 21.9023 8.44503 22 8.68932 22C8.81343 21.9998 8.93645 21.9751 9.05118 21.9274L13.0889 20.3879C13.4506 20.2773 13.6907 19.936 13.6907 19.525V12.8237C13.6914 12.385 13.8327 11.958 14.0936 11.6055C14.096 11.602 14.0986 11.5987 14.101 11.5952L21.2868 1.4725C21.4916 1.18786 21.5197 0.812482 21.3594 0.500577C21.2015 0.192598 20.8842 -0.000652693 20.5382 1.6565e-06Z" fill="#FBFBFB"/>
</svg>
