<svg width="60" height="60" viewBox="0 0 60 60" fill="none" xmlns="http://www.w3.org/2000/svg">
<g filter="url(#filter0_d)">
<circle cx="30" cy="24" r="20" fill="white"/>
<path d="M19.0868 19.9575H40.826C41.2872 19.9575 41.7296 20.1407 42.0557 20.4669C42.3819 20.793 42.5651 21.2354 42.5651 21.6967H19.0868V19.9575Z" fill="#4393C1"/>
<path d="M38.2173 32.1317H19.5216H19.0868V30.3926H38.2173V32.1317Z" fill="#4393C1"/>
<path d="M19.0868 28.6528H22.5651C23.0263 28.6528 23.4687 28.8361 23.7948 29.1622C24.121 29.4884 24.3042 29.9307 24.3042 30.392H19.0868V28.6528Z" fill="#F1BF37"/>
<path d="M19.0868 18.2188H22.5651C23.0263 18.2188 23.4687 18.402 23.7948 18.7281C24.121 19.0543 24.3042 19.4966 24.3042 19.9579H19.0868V18.2188Z" fill="#F1BF37"/>
<path d="M42.9861 19.1268C42.8708 19.1268 42.7602 19.1726 42.6787 19.2541C42.5972 19.3357 42.5514 19.4463 42.5514 19.5616V21.7355H19.9427V15.5568C20.1715 15.4569 20.359 15.2813 20.4736 15.0594C20.5882 14.8375 20.6229 14.583 20.5719 14.3385C20.5209 14.0941 20.3873 13.8746 20.1935 13.7171C19.9997 13.5596 19.7576 13.4736 19.5079 13.4736C19.2582 13.4736 19.0161 13.5596 18.8223 13.7171C18.6285 13.8746 18.4949 14.0941 18.4439 14.3385C18.3928 14.583 18.4275 14.8375 18.5421 15.0594C18.6567 15.2813 18.8442 15.4569 19.0731 15.5568V35.6485C19.0731 35.7639 19.1189 35.8744 19.2004 35.956C19.282 36.0375 19.3926 36.0833 19.5079 36.0833C19.6232 36.0833 19.7338 36.0375 19.8153 35.956C19.8969 35.8744 19.9427 35.7639 19.9427 35.6485V33.0398H38.2035V35.6485C38.2035 35.7639 38.2493 35.8744 38.3309 35.956C38.4124 36.0375 38.523 36.0833 38.6383 36.0833C38.7536 36.0833 38.8642 36.0375 38.9458 35.956C39.0273 35.8744 39.0731 35.7639 39.0731 35.6485V34.779H42.5514V35.6485C42.5514 35.7639 42.5972 35.8744 42.6787 35.956C42.7602 36.0375 42.8708 36.0833 42.9861 36.0833C43.1015 36.0833 43.212 36.0375 43.2936 35.956C43.3751 35.8744 43.4209 35.7639 43.4209 35.6485V19.5616C43.4209 19.4463 43.3751 19.3357 43.2936 19.2541C43.212 19.1726 43.1015 19.1268 42.9861 19.1268ZM38.2035 32.1703H19.9427V22.6051H38.2035V32.1703ZM42.5514 33.9094H39.0731V32.1703H42.5514V33.9094ZM42.5514 31.3007H39.0731V29.5616H42.5514V31.3007ZM42.5514 28.692H39.0731V26.9529H42.5514V28.692ZM42.5514 26.0833H39.0731V24.3442H42.5514V26.0833ZM42.5514 23.4746H39.0731V22.6051H42.5514V23.4746Z" fill="#324D5C"/>
<path d="M42.5651 16.4795C42.4498 16.4795 42.3392 16.5253 42.2576 16.6068C42.1761 16.6884 42.1303 16.799 42.1303 16.9143V17.3491C42.1303 17.4644 42.1761 17.575 42.2576 17.6565C42.3392 17.738 42.4498 17.7838 42.5651 17.7838C42.6804 17.7838 42.791 17.738 42.8725 17.6565C42.954 17.575 42.9998 17.4644 42.9998 17.3491V16.9143C42.9998 16.799 42.954 16.6884 42.8725 16.6068C42.791 16.5253 42.6804 16.4795 42.5651 16.4795Z" fill="#324D5C"/>
</g>
<defs>
<filter id="filter0_d" x="0" y="0" width="60" height="60" filterUnits="userSpaceOnUse" color-interpolation-filters="sRGB">
<feFlood flood-opacity="0" result="BackgroundImageFix"/>
<feColorMatrix in="SourceAlpha" type="matrix" values="0 0 0 0 0 0 0 0 0 0 0 0 0 0 0 0 0 0 127 0"/>
<feOffset dy="6"/>
<feGaussianBlur stdDeviation="5"/>
<feColorMatrix type="matrix" values="0 0 0 0 0 0 0 0 0 0 0 0 0 0 0 0 0 0 0.4 0"/>
<feBlend mode="normal" in2="BackgroundImageFix" result="effect1_dropShadow"/>
<feBlend mode="normal" in="SourceGraphic" in2="effect1_dropShadow" result="shape"/>
</filter>
</defs>
</svg>
