<svg width="60" height="60" viewBox="0 0 60 60" fill="none" xmlns="http://www.w3.org/2000/svg">
<g filter="url(#filter0_d)">
<circle cx="30" cy="24" r="20" fill="white"/>
<path d="M29.5054 20.5745C29.5054 17.2413 26.7939 14.5298 23.4607 14.5298C20.1014 14.5298 17.3684 17.2413 17.3684 20.5745C17.3684 23.6682 19.7225 26.2256 22.7468 26.5773V29.7605H21.1761C20.782 29.7605 20.4622 30.0804 20.4622 30.4745C20.4622 30.8686 20.782 31.1884 21.1761 31.1884H22.7468V32.7591C22.7468 33.1532 23.0666 33.473 23.4607 33.473C23.8548 33.473 24.1747 33.1532 24.1747 32.7591V31.1884H25.7453C26.1394 31.1884 26.4593 30.8686 26.4593 30.4745C26.4593 30.0804 26.1394 29.7605 25.7453 29.7605H24.1747V26.5768C27.1727 26.2227 29.5054 23.6659 29.5054 20.5745ZM23.4607 23.5731C21.8072 23.5731 20.4622 22.228 20.4622 20.5745C20.4622 18.921 21.8072 17.5759 23.4607 17.5759C25.1142 17.5759 26.4593 18.921 26.4593 20.5745C26.4593 22.228 25.1142 23.5731 23.4607 23.5731Z" fill="#FF6378"/>
<path d="M24.1746 26.5764V29.7601H25.7453C26.1394 29.7601 26.4593 30.0799 26.4593 30.474C26.4593 30.8681 26.1394 31.1879 25.7453 31.1879H24.1746V32.7586C24.1746 33.1527 23.8548 33.4726 23.4607 33.4726V23.5726C25.1142 23.5726 26.4593 22.2275 26.4593 20.574C26.4593 18.9205 25.1142 17.5754 23.4607 17.5754V14.5293C26.7939 14.5293 29.5054 17.2408 29.5054 20.574C29.5054 23.6654 27.1727 26.2222 24.1746 26.5764Z" fill="#FF1F3D"/>
<path d="M36.3593 21.4246V16.577L37.534 17.3599C37.8602 17.5779 38.3047 17.4912 38.524 17.1619C38.7429 16.834 38.6539 16.3904 38.326 16.1719C35.8669 14.5325 35.9958 14.6107 35.9038 14.5779C35.7298 14.5093 35.5329 14.5145 35.3664 14.586C35.2713 14.6276 35.463 14.5064 32.9647 16.1719C32.6368 16.3904 32.5478 16.834 32.7667 17.1619C32.9852 17.4898 33.4288 17.5789 33.7567 17.3599L34.9314 16.577V21.4251C31.9333 21.7792 29.6007 24.3361 29.6007 27.4274C29.6007 30.7606 32.3122 33.4722 35.6454 33.4722C39.0047 33.4722 41.7377 30.7606 41.7377 27.4274C41.7377 24.3337 39.3836 21.7764 36.3593 21.4246ZM35.6454 30.426C33.9919 30.426 32.6468 29.0809 32.6468 27.4274C32.6468 25.774 33.9919 24.4289 35.6454 24.4289C37.2988 24.4289 38.6439 25.774 38.6439 27.4274C38.6439 29.0809 37.2988 30.426 35.6454 30.426Z" fill="#6BA7FF"/>
<path d="M41.7376 27.4277C41.7376 30.7609 39.0046 33.4724 35.6453 33.4724V30.4263C37.2987 30.4263 38.6438 29.0812 38.6438 27.4277C38.6438 25.7742 37.2987 24.4292 35.6453 24.4292C35.6453 14.0581 35.6434 14.5296 35.6486 14.5296C35.7248 14.5296 35.7851 14.5408 35.8561 14.5611C35.9865 14.6046 35.8021 14.4897 38.3259 16.1722C38.6538 16.3907 38.7428 16.8342 38.5239 17.1622C38.3047 17.4914 37.8602 17.5782 37.5339 17.3602L36.3592 16.5772V21.4249C39.3835 21.7766 41.7376 24.334 41.7376 27.4277Z" fill="#5E69E2"/>
</g>
<defs>
<filter id="filter0_d" x="0" y="0" width="60" height="60" filterUnits="userSpaceOnUse" color-interpolation-filters="sRGB">
<feFlood flood-opacity="0" result="BackgroundImageFix"/>
<feColorMatrix in="SourceAlpha" type="matrix" values="0 0 0 0 0 0 0 0 0 0 0 0 0 0 0 0 0 0 127 0"/>
<feOffset dy="6"/>
<feGaussianBlur stdDeviation="5"/>
<feColorMatrix type="matrix" values="0 0 0 0 0 0 0 0 0 0 0 0 0 0 0 0 0 0 0.4 0"/>
<feBlend mode="normal" in2="BackgroundImageFix" result="effect1_dropShadow"/>
<feBlend mode="normal" in="SourceGraphic" in2="effect1_dropShadow" result="shape"/>
</filter>
</defs>
</svg>
