<svg width="60" height="60" viewBox="0 0 60 60" fill="none" xmlns="http://www.w3.org/2000/svg">
<g filter="url(#filter0_d)">
<circle cx="30" cy="24" r="20" fill="white"/>
<path d="M29.9999 9.71436C22.1099 9.71436 15.7142 16.1101 15.7142 24.0001C15.7142 31.89 22.1099 38.2858 29.9999 38.2858C37.8898 38.2858 44.2856 31.89 44.2856 24.0001C44.2856 16.1101 37.8898 9.71436 29.9999 9.71436ZM35.5194 34.0379C33.8859 34.9383 32.0091 35.4515 30.0126 35.4533C23.6968 35.4607 18.5461 30.3159 18.5461 24.0001C18.5467 22.2602 18.9345 20.6112 19.6289 19.1342C20.0863 18.1584 20.6783 17.2586 21.3803 16.4576C21.3809 16.4564 21.3815 16.4559 21.3826 16.4547C21.5006 16.3195 21.7128 16.3264 21.8251 16.4656L35.6045 33.6023C35.7173 33.7427 35.677 33.951 35.5194 34.0379ZM38.6194 31.5425C38.6189 31.5437 38.6182 31.5443 38.6171 31.5454C38.4992 31.6807 38.2869 31.6737 38.1747 31.5345L24.3953 14.3978C24.2825 14.2574 24.3228 14.0492 24.4804 13.9623C26.1139 13.0618 27.9907 12.5486 29.9872 12.5469C36.303 12.54 41.4537 17.6843 41.4537 24.0001C41.4531 25.74 41.0653 27.389 40.3709 28.8659C39.9134 29.8418 39.3214 30.7416 38.6194 31.5425Z" fill="#FB0000"/>
<path d="M37.3644 25.9051H38.7576C39.0759 25.9051 39.334 25.647 39.334 25.3287V23.6238C39.334 23.3055 39.0759 23.0474 38.7576 23.0474H37.3644V25.9051Z" fill="#D55A02"/>
<path d="M39.3341 24.3765V25.3293C39.3341 25.6474 39.0764 25.9058 38.7576 25.9058H37.6207V24.953H38.7576C39.0763 24.953 39.3341 24.6947 39.3341 24.3765Z" fill="#8C3B00"/>
<path d="M38.0751 12.2144C41.1366 14.834 43.0773 18.7269 43.0773 23.0726C43.0773 30.9626 36.6815 37.3583 28.7916 37.3583C25.7951 37.3583 23.0132 36.4354 20.7164 34.8584C23.2134 36.9953 26.4562 38.2858 29.9999 38.2858C37.8898 38.2858 44.2856 31.8901 44.2856 24.0001C44.2856 19.1072 41.8259 14.7886 38.0751 12.2144Z" fill="#FB0000"/>
<path d="M25.3107 25.9051H21.2422C20.9238 25.9051 20.6657 25.647 20.6657 25.3287V23.6238C20.6657 23.3055 20.9238 23.0474 21.2422 23.0474H25.3107V25.9051H25.3107Z" fill="#E8BA17"/>
<path d="M25.1144 24.953V25.9058H21.2422C20.9235 25.9058 20.6657 25.6474 20.6657 25.3293V24.3765C20.6657 24.6947 20.9235 24.953 21.2422 24.953H25.1144Z" fill="#B8920B"/>
<path d="M25.1142 23.0474H37.6205V25.9051H25.1142V23.0474Z" fill="#EBEBEB"/>
<path d="M25.1142 24.9531H37.6204V25.9056H25.1142V24.9531Z" fill="#D3D1D1"/>
<path d="M38.429 22.1617C38.1978 22.1617 38.0105 21.9743 38.0105 21.7432V21.3858C38.0105 20.9888 37.6875 20.6658 37.2905 20.6658H33.8261C32.8498 20.6658 32.0555 19.8714 32.0555 18.8952C32.0555 17.9188 32.8498 17.1245 33.8261 17.1245H36.7893C37.0205 17.1245 37.2078 17.3119 37.2078 17.543C37.2078 17.7742 37.0205 17.9616 36.7893 17.9616H33.8261C33.3113 17.9616 32.8926 18.3804 32.8926 18.8952C32.8926 19.4099 33.3114 19.8287 33.8261 19.8287H37.2905C38.1491 19.8287 38.8476 20.5272 38.8476 21.3858V21.7432C38.8476 21.9743 38.6602 22.1617 38.429 22.1617Z" fill="#9C9C9C"/>
</g>
<defs>
<filter id="filter0_d" x="0" y="0" width="60" height="60" filterUnits="userSpaceOnUse" color-interpolation-filters="sRGB">
<feFlood flood-opacity="0" result="BackgroundImageFix"/>
<feColorMatrix in="SourceAlpha" type="matrix" values="0 0 0 0 0 0 0 0 0 0 0 0 0 0 0 0 0 0 127 0"/>
<feOffset dy="6"/>
<feGaussianBlur stdDeviation="5"/>
<feColorMatrix type="matrix" values="0 0 0 0 0 0 0 0 0 0 0 0 0 0 0 0 0 0 0.4 0"/>
<feBlend mode="normal" in2="BackgroundImageFix" result="effect1_dropShadow"/>
<feBlend mode="normal" in="SourceGraphic" in2="effect1_dropShadow" result="shape"/>
</filter>
</defs>
</svg>
