<svg width="33" height="33" viewBox="0 0 33 33" fill="none" xmlns="http://www.w3.org/2000/svg">
<circle cx="16.2335" cy="16.2335" r="16.2335" fill="#FDCA40"/>
<path d="M8.24541 21.6392H15.5039V19.8792H11.2284V19.8096L12.7149 18.3529C14.8079 16.4438 15.3697 15.4893 15.3697 14.3309C15.3697 12.566 13.9279 11.3181 11.7454 11.3181C9.60763 11.3181 8.14101 12.5958 8.14598 14.5944H10.1893C10.1843 13.62 10.8008 13.0234 11.7305 13.0234C12.6254 13.0234 13.2916 13.5802 13.2916 14.4751C13.2916 15.2855 12.7944 15.8423 11.8697 16.7322L8.24541 20.088V21.6392ZM17.3438 21.6392H24.6023V19.8792H20.3267V19.8096L21.8132 18.3529C23.9063 16.4438 24.4681 15.4893 24.4681 14.3309C24.4681 12.566 23.0263 11.3181 20.8438 11.3181C18.706 11.3181 17.2394 12.5958 17.2443 14.5944H19.2877C19.2827 13.62 19.8992 13.0234 20.8289 13.0234C21.7237 13.0234 22.3899 13.5802 22.3899 14.4751C22.3899 15.2855 21.8928 15.8423 20.9681 16.7322L17.3438 20.088V21.6392Z" fill="#184177"/>
</svg>
