<svg width="60" height="60" viewBox="0 0 60 60" fill="none" xmlns="http://www.w3.org/2000/svg">
<g filter="url(#filter0_d)">
<circle cx="30" cy="24" r="20" fill="white"/>
<path d="M38.0613 19.0491C38.0613 14.2335 34.1438 10.3159 29.3282 10.3159C24.4748 10.3159 20.5263 14.2335 20.5263 19.0491C20.5263 23.5188 23.9274 27.2135 28.2967 27.7217V32.3207H26.0275C25.4581 32.3207 24.996 32.7828 24.996 33.3522C24.996 33.9215 25.4581 34.3836 26.0275 34.3836H28.2967V36.6529C28.2967 37.2222 28.7588 37.6843 29.3282 37.6843C29.8976 37.6843 30.3597 37.2222 30.3597 36.6529V34.3836H32.6289C33.1983 34.3836 33.6604 33.9215 33.6604 33.3522C33.6604 32.7828 33.1983 32.3207 32.6289 32.3207H30.3597V27.721C34.6912 27.2094 38.0613 23.5153 38.0613 19.0491ZM29.3282 23.3812C26.9393 23.3812 24.996 21.438 24.996 19.0491C24.996 16.6602 26.9393 14.7169 29.3282 14.7169C31.7171 14.7169 33.6604 16.6602 33.6604 19.0491C33.6604 21.438 31.7171 23.3812 29.3282 23.3812Z" fill="#FF6378"/>
<path d="M30.3598 27.721V32.3207H32.629C33.1984 32.3207 33.6605 32.7828 33.6605 33.3522C33.6605 33.9215 33.1984 34.3836 32.629 34.3836H30.3598V36.6529C30.3598 37.2222 29.8977 37.6843 29.3283 37.6843V23.3812C31.7172 23.3812 33.6605 21.438 33.6605 19.0491C33.6605 16.6602 31.7172 14.7169 29.3283 14.7169V10.3159C34.1439 10.3159 38.0614 14.2335 38.0614 19.0491C38.0614 23.5153 34.6913 27.2094 30.3598 27.721Z" fill="#F7445C"/>
</g>
<defs>
<filter id="filter0_d" x="0" y="0" width="60" height="60" filterUnits="userSpaceOnUse" color-interpolation-filters="sRGB">
<feFlood flood-opacity="0" result="BackgroundImageFix"/>
<feColorMatrix in="SourceAlpha" type="matrix" values="0 0 0 0 0 0 0 0 0 0 0 0 0 0 0 0 0 0 127 0"/>
<feOffset dy="6"/>
<feGaussianBlur stdDeviation="5"/>
<feColorMatrix type="matrix" values="0 0 0 0 0 0 0 0 0 0 0 0 0 0 0 0 0 0 0.4 0"/>
<feBlend mode="normal" in2="BackgroundImageFix" result="effect1_dropShadow"/>
<feBlend mode="normal" in="SourceGraphic" in2="effect1_dropShadow" result="shape"/>
</filter>
</defs>
</svg>
