<svg width="26" height="26" viewBox="0 0 26 26" fill="none" xmlns="http://www.w3.org/2000/svg">
<path d="M7.3125 12.606H5.6875C5.26683 12.606 4.92578 12.9839 4.92578 13.4501C4.92578 13.9163 5.26683 14.2943 5.6875 14.2943H7.3125C7.73317 14.2943 8.07422 13.9163 8.07422 13.4501C8.07422 12.9839 7.73317 12.606 7.3125 12.606Z" fill="#999999"/>
<path d="M7.3125 16.208H5.6875C5.26683 16.208 4.92578 16.586 4.92578 17.0522C4.92578 17.5184 5.26683 17.8963 5.6875 17.8963H7.3125C7.73317 17.8963 8.07422 17.5184 8.07422 17.0522C8.07422 16.586 7.73317 16.208 7.3125 16.208Z" fill="#999999"/>
<path d="M7.3125 19.8096H5.6875C5.26683 19.8096 4.92578 20.1875 4.92578 20.6537C4.92578 21.1199 5.26683 21.4979 5.6875 21.4979H7.3125C7.73317 21.4979 8.07422 21.1199 8.07422 20.6537C8.07422 20.1875 7.73317 19.8096 7.3125 19.8096Z" fill="#999999"/>
<path d="M13.8125 12.606H12.1875C11.7668 12.606 11.4258 12.9839 11.4258 13.4501C11.4258 13.9163 11.7668 14.2943 12.1875 14.2943H13.8125C14.2332 14.2943 14.5742 13.9163 14.5742 13.4501C14.5742 12.9839 14.2332 12.606 13.8125 12.606Z" fill="#999999"/>
<path d="M13.8125 16.208H12.1875C11.7668 16.208 11.4258 16.586 11.4258 17.0522C11.4258 17.5184 11.7668 17.8963 12.1875 17.8963H13.8125C14.2332 17.8963 14.5742 17.5184 14.5742 17.0522C14.5742 16.586 14.2332 16.208 13.8125 16.208Z" fill="#999999"/>
<path d="M13.8125 19.8096H12.1875C11.7668 19.8096 11.4258 20.1875 11.4258 20.6537C11.4258 21.1199 11.7668 21.4979 12.1875 21.4979H13.8125C14.2332 21.4979 14.5742 21.1199 14.5742 20.6537C14.5742 20.1875 14.2332 19.8096 13.8125 19.8096Z" fill="#999999"/>
<path d="M20.3125 12.606H18.6875C18.2668 12.606 17.9258 12.9839 17.9258 13.4501C17.9258 13.9163 18.2668 14.2943 18.6875 14.2943H20.3125C20.7332 14.2943 21.0742 13.9163 21.0742 13.4501C21.0742 12.9839 20.7332 12.606 20.3125 12.606Z" fill="#999999"/>
<path d="M20.3125 16.208H18.6875C18.2668 16.208 17.9258 16.586 17.9258 17.0522C17.9258 17.5184 18.2668 17.8963 18.6875 17.8963H20.3125C20.7332 17.8963 21.0742 17.5184 21.0742 17.0522C21.0742 16.586 20.7332 16.208 20.3125 16.208Z" fill="#999999"/>
<path d="M20.3125 19.8096H18.6875C18.2668 19.8096 17.9258 20.1875 17.9258 20.6537C17.9258 21.1199 18.2668 21.4979 18.6875 21.4979H20.3125C20.7332 21.4979 21.0742 21.1199 21.0742 20.6537C21.0742 20.1875 20.7332 19.8096 20.3125 19.8096Z" fill="#999999"/>
<path d="M23.7148 2.25108H21.8867V0.844156C21.8867 0.377957 21.5457 0 21.125 0C20.7043 0 20.3633 0.377957 20.3633 0.844156V2.25108H13.7617V0.844156C13.7617 0.377957 13.4207 0 13 0C12.5793 0 12.2383 0.377957 12.2383 0.844156V2.25108H5.63672V0.844156C5.63672 0.377957 5.29567 0 4.875 0C4.45433 0 4.11328 0.377957 4.11328 0.844156V2.25108H2.28516C1.02512 2.25108 0 3.38715 0 4.78355V23.4675C0 24.8639 1.02512 26 2.28516 26H23.7148C24.9749 26 26 24.8639 26 23.4675C26 22.9227 26 5.25768 26 4.78355C26 3.38715 24.9749 2.25108 23.7148 2.25108ZM1.52344 4.78355C1.52344 4.31808 1.86514 3.93939 2.28516 3.93939H4.11328V5.34632C4.11328 5.81252 4.45433 6.19048 4.875 6.19048C5.29567 6.19048 5.63672 5.81252 5.63672 5.34632V3.93939H12.2383V5.34632C12.2383 5.81252 12.5793 6.19048 13 6.19048C13.4207 6.19048 13.7617 5.81252 13.7617 5.34632V3.93939H20.3633V5.34632C20.3633 5.81252 20.7043 6.19048 21.125 6.19048C21.5457 6.19048 21.8867 5.81252 21.8867 5.34632V3.93939H23.7148C24.1349 3.93939 24.4766 4.31808 24.4766 4.78355V8.1039H1.52344V4.78355ZM23.7148 24.3117H2.28516C1.86514 24.3117 1.52344 23.933 1.52344 23.4675V9.79221H24.4766V23.4675C24.4766 23.933 24.1349 24.3117 23.7148 24.3117Z" fill="#999999"/>
</svg>
