<svg width="26" height="26" viewBox="0 0 26 26" fill="currentColor" xmlns="http://www.w3.org/2000/svg">
<path d="M25.6258 18.2348C25.6019 18.0826 25.5653 17.9325 25.5165 17.7863C25.0492 16.4857 23.7166 15.7075 22.3542 15.9396C21.9036 16.0106 21.4807 15.7028 21.4096 15.2522L20.7241 10.8659C20.1615 7.15479 17.4805 4.11564 13.8685 3.09444C13.54 1.08391 11.6439 -0.279675 9.6333 0.0488354C7.64934 0.373009 6.29025 2.22605 6.57718 4.21576C3.46382 6.18606 1.8204 9.81914 2.39632 13.4583L3.13092 18.1267C3.19819 18.5765 2.89212 18.997 2.44354 19.0713C1.07562 19.2687 0.0460666 20.4184 0.000151115 21.7997C-0.0156781 23.3324 1.21407 24.5879 2.74684 24.6037C2.75644 24.6038 2.76609 24.6039 2.77568 24.6039C2.92037 24.6038 3.06478 24.5927 3.20773 24.5706L6.05542 24.1228C7.04604 25.8912 9.28267 26.5218 11.0511 25.5312C11.9852 25.008 12.6442 24.1029 12.8555 23.0533L23.3146 21.4074C24.8289 21.1696 25.8637 19.7492 25.6258 18.2348ZM9.95504 1.96856C10.0515 1.95354 10.1489 1.94579 10.2465 1.94541C10.8667 1.94872 11.4444 2.26102 11.7869 2.77807H11.7425C11.3974 2.76766 11.052 2.77758 10.7081 2.80767C10.3459 2.84226 9.98604 2.89787 9.63027 2.9742C9.55345 2.98992 9.47761 3.01215 9.40172 3.03063C9.11029 3.0991 8.82439 3.1796 8.54407 3.2749C8.51631 3.28325 8.48764 3.28786 8.45988 3.29805C8.65509 2.60043 9.23942 2.08083 9.95504 1.96856ZM9.25188 24.1497C8.85979 24.1501 8.47793 24.0242 8.16298 23.7907L10.7535 23.3845C10.4049 23.8659 9.84624 24.1506 9.25188 24.1497ZM23.6726 19.1473C23.531 19.3799 23.2941 19.5383 23.025 19.5802L11.8813 21.3325L6.46622 22.1846L2.92281 22.7397C2.65436 22.7835 2.38039 22.7055 2.17526 22.5269C1.9659 22.3484 1.84691 22.0859 1.85054 21.8108C1.8906 21.3363 2.25852 20.9552 2.73128 20.8985C4.18844 20.665 5.1834 19.2984 4.95816 17.8399L4.22449 13.1715C3.74397 10.0916 5.23945 7.03981 7.96777 5.53235C7.98381 5.52698 7.99953 5.5208 8.01493 5.51387C8.90039 5.03411 9.87443 4.74002 10.8774 4.64977C11.1814 4.62304 11.4867 4.61719 11.7915 4.6322L11.9432 4.63963C12.2585 4.65871 12.5722 4.69823 12.8823 4.75808C12.8925 4.75808 12.9017 4.75808 12.9119 4.75808C16.0424 5.43532 18.4251 7.98241 18.8922 11.1511L19.5824 15.5373C19.8119 16.9972 21.1811 17.995 22.6411 17.7661C23.1077 17.675 23.5742 17.9237 23.7587 18.3619C23.8488 18.6233 23.8173 18.9114 23.6726 19.1473Z" fill="#999999"/>
</svg>
