<svg width="60" height="60" viewBox="0 0 60 60" fill="none" xmlns="http://www.w3.org/2000/svg">
<g filter="url(#filter0_d)">
<circle cx="30" cy="24" r="20" fill="white"/>
<path d="M30.2857 10C22.3957 10 16 16.3958 16 24.2857C16 32.1757 22.3957 38.5714 30.2857 38.5714C38.1756 38.5714 44.5714 32.1757 44.5714 24.2857C44.5714 16.3958 38.1756 10 30.2857 10ZM35.8052 34.3235C34.1717 35.2239 32.2949 35.7372 30.2984 35.7389C23.9826 35.7464 18.8319 30.6015 18.8319 24.2857C18.8325 22.5458 19.2203 20.8968 19.9147 19.4199C20.3721 18.444 20.9642 17.5442 21.6661 16.7432C21.6667 16.7421 21.6673 16.7415 21.6684 16.7403C21.7864 16.6051 21.9986 16.6121 22.1109 16.7513L35.8903 33.8879C36.0031 34.0283 35.9628 34.2367 35.8052 34.3235ZM38.9052 31.8282C38.9047 31.8294 38.9041 31.8299 38.9029 31.8311C38.785 31.9663 38.5727 31.9594 38.4605 31.8201L24.6811 14.6835C24.5683 14.5431 24.6086 14.3348 24.7662 14.2479C26.3997 13.3475 28.2765 12.8343 30.273 12.8325C36.5888 12.8256 41.7395 17.9699 41.7395 24.2857C41.7389 26.0256 41.3511 27.6746 40.6567 29.1516C40.1992 30.1274 39.6072 31.0272 38.9052 31.8282Z" fill="#FB0000"/>
<path d="M38.361 12.5C41.4225 15.1196 43.3632 19.0126 43.3632 23.3583C43.3632 31.2482 36.9675 37.644 29.0775 37.644C26.081 37.644 23.2991 36.7211 21.0023 35.144C23.4993 37.2809 26.7421 38.5715 30.2858 38.5715C38.1757 38.5715 44.5715 32.1757 44.5715 24.2858C44.5715 19.3929 42.1118 15.0742 38.361 12.5Z" fill="#FB0000"/>
<path d="M36.8525 31.5047C36.0633 32.6146 34.5593 33.6102 31.9319 34.3357C31.1487 34.5518 30.3204 34.5518 29.5373 34.3357C26.9099 33.6102 25.4058 32.6146 24.6166 31.5047C24.6166 31.5047 24.1393 29.3182 25.0177 27.4186C26.2522 24.7494 30.214 20.7505 30.214 20.7505C30.3939 20.731 30.5677 20.7222 30.7346 20.7222C30.9014 20.7222 31.0753 20.731 31.2551 20.7505C31.2551 20.7505 35.3644 23.8992 36.4204 26.644C37.6006 29.7116 36.8525 31.5047 36.8525 31.5047Z" fill="#FCEFDF"/>
<path d="M36.8523 31.5047C36.0631 32.6146 34.559 33.6102 31.9316 34.3357C31.5403 34.444 31.1373 34.4979 30.7343 34.4979V20.7222C30.9012 20.7222 31.075 20.731 31.2549 20.7505C31.2549 20.7505 35.364 23.8994 36.42 26.644C37.6006 29.7116 36.8523 31.5047 36.8523 31.5047Z" fill="#EDD4BE"/>
<path d="M38.4933 17C35.6228 17.415 33.7479 20.0032 33.0065 21.2356C32.4052 20.96 31.8061 20.8084 31.2591 20.7508C31.3182 21.1654 31.9779 21.7909 32.0632 22.3683C32.3651 24.4139 32.0889 26.2307 32.3952 27.6103C32.5969 28.5181 34.1106 27.8461 35.5413 28.7048C36.841 29.4849 36.8524 31.505 36.8524 31.505C37.9322 29.9865 37.6762 28.254 37.1255 26.7046C41.4246 22.8629 38.4933 17 38.4933 17Z" fill="#B56F40"/>
<path d="M22.9757 17C22.9757 17 20.0433 22.865 24.3458 26.7066C23.7944 28.2555 23.5372 29.9872 24.6166 31.505C24.6166 31.505 24.6321 29.4849 25.9318 28.7048C27.3625 27.8461 28.8762 28.5181 29.078 27.6103C29.3842 26.2307 29.108 24.4139 29.41 22.3683C29.4952 21.7909 30.1549 21.1654 30.214 20.7508C29.666 20.8086 29.0657 20.9605 28.4634 21.2371C27.7226 20.0053 25.8473 17.4152 22.9757 17Z" fill="#CC8656"/>
<path d="M26.9097 22.2725C26.2841 22.846 25.7091 23.6055 25.2522 24.5936C25.2188 24.6661 25.1844 24.74 25.15 24.8148C23.3671 23.0924 24.3403 20.1382 24.3403 20.1382C25.9053 20.3645 26.8004 22.054 26.9097 22.2725Z" fill="#FCEFDF"/>
<path d="M36.3193 24.8148C36.2849 24.74 36.2505 24.6661 36.217 24.5936C35.7602 23.6055 35.1852 22.846 34.5596 22.2725C34.6688 22.054 35.564 20.3645 37.1289 20.1382C37.1289 20.1382 38.1022 23.0924 36.3193 24.8148Z" fill="#EDD4BE"/>
<path d="M30.787 29.6655C29.8501 29.6655 29.0266 29.7213 29.2681 30.778C29.4243 31.4611 30.4179 31.9491 30.787 31.9491C31.1561 31.9491 32.1497 31.4612 32.3059 30.778C32.5474 29.7213 31.7239 29.6655 30.787 29.6655Z" fill="#514B40"/>
<path d="M32.3053 30.7776C32.1493 31.4612 31.1556 31.9491 30.7865 31.9491V29.6655C31.7235 29.6655 32.547 29.7213 32.3053 30.7776Z" fill="#3A352E"/>
<path d="M29.2012 27.3951C29.2162 26.9401 28.8595 26.5591 28.4045 26.5441C27.9495 26.5291 27.5685 26.8857 27.5535 27.3407C27.5385 27.7957 27.8952 28.1767 28.3502 28.1917C28.8051 28.2068 29.1862 27.8501 29.2012 27.3951Z" fill="#514B40"/>
<path d="M33.1456 28.1846C33.6002 28.1641 33.9521 27.7791 33.9316 27.3245C33.9111 26.87 33.526 26.5181 33.0715 26.5386C32.617 26.5591 32.2651 26.9442 32.2856 27.3987C32.3061 27.8532 32.6911 28.2051 33.1456 28.1846Z" fill="#3A352E"/>
</g>
<defs>
<filter id="filter0_d" x="0" y="0" width="60" height="60" filterUnits="userSpaceOnUse" color-interpolation-filters="sRGB">
<feFlood flood-opacity="0" result="BackgroundImageFix"/>
<feColorMatrix in="SourceAlpha" type="matrix" values="0 0 0 0 0 0 0 0 0 0 0 0 0 0 0 0 0 0 127 0"/>
<feOffset dy="6"/>
<feGaussianBlur stdDeviation="5"/>
<feColorMatrix type="matrix" values="0 0 0 0 0 0 0 0 0 0 0 0 0 0 0 0 0 0 0.4 0"/>
<feBlend mode="normal" in2="BackgroundImageFix" result="effect1_dropShadow"/>
<feBlend mode="normal" in="SourceGraphic" in2="effect1_dropShadow" result="shape"/>
</filter>
</defs>
</svg>
