<svg width="60" height="60" viewBox="0 0 60 60" fill="none" xmlns="http://www.w3.org/2000/svg">
<g filter="url(#filter0_d)">
<circle cx="30" cy="24" r="20" fill="white"/>
<path d="M30.3008 41.4434C39.7685 41.4434 47.4436 33.7683 47.4436 24.3006C47.4436 14.8328 39.7685 7.15771 30.3008 7.15771C20.833 7.15771 13.1579 14.8328 13.1579 24.3006C13.1579 33.7683 20.833 41.4434 30.3008 41.4434Z" fill="white"/>
<path d="M39.1152 33.3798C37.9782 34.9789 35.8112 36.4132 32.0257 37.4586C30.8974 37.7699 29.7041 37.7699 28.5757 37.4586C24.7902 36.4132 22.6233 34.9789 21.4862 33.3798C21.4862 33.3798 20.7985 30.2296 22.0641 27.4927C23.8427 23.647 29.5507 17.8856 29.5507 17.8856C29.8099 17.8574 30.0603 17.8447 30.3007 17.8447C30.5411 17.8447 30.7916 17.8574 31.0507 17.8856C31.0507 17.8856 36.9712 22.4221 38.4927 26.3766C40.193 30.7963 39.1152 33.3798 39.1152 33.3798Z" fill="#FCEFDF"/>
<path d="M39.1152 33.3798C37.9781 34.9789 35.8112 36.4132 32.0257 37.4586C31.4618 37.6146 30.8812 37.6923 30.3007 37.6923V17.8447C30.5411 17.8447 30.7915 17.8574 31.0507 17.8856C31.0507 17.8856 36.971 22.4224 38.4924 26.3766C40.1933 30.7963 39.1152 33.3798 39.1152 33.3798Z" fill="#EDD4BE"/>
<path d="M41.4796 12.4814C37.3438 13.0794 34.6425 16.8083 33.5744 18.584C32.708 18.1868 31.8449 17.9685 31.0568 17.8855C31.1419 18.4828 32.0924 19.3839 32.2152 20.2158C32.6502 23.1631 32.2523 25.7807 32.6936 27.7683C32.9842 29.0763 35.1651 28.1081 37.2264 29.3453C39.0989 30.4692 39.1153 33.3797 39.1153 33.3797C40.6711 31.1919 40.3023 28.6958 39.5089 26.4634C45.7028 20.9285 41.4796 12.4814 41.4796 12.4814Z" fill="#B56F40"/>
<path d="M19.1222 12.4814C19.1222 12.4814 14.8974 20.9315 21.0963 26.4664C20.3018 28.698 19.9313 31.1929 21.4865 33.3797C21.4865 33.3797 21.5088 30.4692 23.3814 29.3453C25.4426 28.108 27.6235 29.0763 27.9142 27.7683C28.3555 25.7807 27.9575 23.1631 28.3925 20.2158C28.5153 19.3839 29.4658 18.4828 29.551 17.8855C28.7614 17.9687 27.8966 18.1875 27.0287 18.5861C25.9614 16.8114 23.2595 13.0796 19.1222 12.4814Z" fill="#CC8656"/>
<path d="M24.7902 20.0779C23.8889 20.9043 23.0605 21.9985 22.4023 23.4221C22.354 23.5266 22.3045 23.6331 22.2549 23.7409C19.6862 21.2592 21.0884 17.0029 21.0884 17.0029C23.3431 17.329 24.6328 19.7632 24.7902 20.0779Z" fill="#FCEFDF"/>
<path d="M38.3467 23.7409C38.2971 23.6331 38.2476 23.5266 38.1994 23.4221C37.5411 21.9985 36.7128 20.9043 35.8114 20.0779C35.9688 19.7632 37.2585 17.329 39.5132 17.0029C39.5132 17.0029 40.9154 21.2592 38.3467 23.7409Z" fill="#EDD4BE"/>
<path d="M30.376 30.7295C29.0262 30.7295 27.8397 30.8098 28.1877 32.3324C28.4127 33.3165 29.8443 34.0196 30.376 34.0196C30.9078 34.0196 32.3394 33.3166 32.5644 32.3324C32.9124 30.8098 31.7258 30.7295 30.376 30.7295Z" fill="#514B40"/>
<path d="M32.5642 32.3317C32.3394 33.3166 30.9077 34.0195 30.3759 34.0195V30.7295C31.7259 30.7295 32.9124 30.8099 32.5642 32.3317Z" fill="#3A352E"/>
<path d="M28.0915 27.4593C28.1131 26.8037 27.5993 26.2548 26.9437 26.2331C26.2882 26.2115 25.7392 26.7254 25.7176 27.3809C25.696 28.0365 26.2098 28.5854 26.8654 28.607C27.5209 28.6287 28.0699 28.1148 28.0915 27.4593Z" fill="#514B40"/>
<path d="M33.7746 28.5964C34.4294 28.5669 34.9364 28.0121 34.9069 27.3572C34.8774 26.7024 34.3226 26.1954 33.6677 26.2249C33.0129 26.2544 32.5059 26.8092 32.5354 27.4641C32.5649 28.1189 33.1197 28.6259 33.7746 28.5964Z" fill="#3A352E"/>
</g>
<defs>
<filter id="filter0_d" x="0" y="0" width="60" height="60" filterUnits="userSpaceOnUse" color-interpolation-filters="sRGB">
<feFlood flood-opacity="0" result="BackgroundImageFix"/>
<feColorMatrix in="SourceAlpha" type="matrix" values="0 0 0 0 0 0 0 0 0 0 0 0 0 0 0 0 0 0 127 0"/>
<feOffset dy="6"/>
<feGaussianBlur stdDeviation="5"/>
<feColorMatrix type="matrix" values="0 0 0 0 0 0 0 0 0 0 0 0 0 0 0 0 0 0 0.4 0"/>
<feBlend mode="normal" in2="BackgroundImageFix" result="effect1_dropShadow"/>
<feBlend mode="normal" in="SourceGraphic" in2="effect1_dropShadow" result="shape"/>
</filter>
</defs>
</svg>
