
<svg width="26" height="26" viewBox="0 0 26 26" fill="currentColor" xmlns="http://www.w3.org/2000/svg">
<path d="M13.0001 6.78467C9.57312 6.78467 6.78491 9.57288 6.78491 12.9998C6.78491 16.4268 9.57312 19.215 13.0001 19.215C16.427 19.215 19.2152 16.4268 19.2152 12.9998C19.2152 9.57288 16.427 6.78467 13.0001 6.78467ZM13.0001 17.6612C10.4299 17.6612 8.3387 15.57 8.3387 12.9998C8.3387 10.4296 10.4299 8.33846 13.0001 8.33846C15.5703 8.33846 17.6614 10.4296 17.6614 12.9998C17.6614 15.57 15.5703 17.6612 13.0001 17.6612Z" fill="#999999"/>
<path d="M25.3882 10.0396L23.3899 9.60519C23.2162 9.07318 23.0009 8.55426 22.7468 8.05438L23.8531 6.33357C24.0507 6.02611 24.0072 5.62244 23.749 5.36417L20.6358 2.25104C20.3776 1.99277 19.9739 1.94933 19.6664 2.1469L17.9456 3.25317C17.4457 2.99907 16.9268 2.78384 16.3948 2.61008L15.9604 0.611755C15.8828 0.2547 15.5666 0 15.2012 0H10.7988C10.4334 0 10.1172 0.2547 10.0396 0.611755L9.60519 2.61008C9.07318 2.78384 8.55426 2.99907 8.05438 3.25317L6.33357 2.1469C6.02611 1.94933 5.62244 1.99277 5.36417 2.25104L2.25104 5.36417C1.99277 5.62244 1.94933 6.02611 2.1469 6.33357L3.25317 8.05438C2.99907 8.55426 2.78384 9.07318 2.61008 9.60519L0.611755 10.0396C0.2547 10.1174 0 10.4334 0 10.7988V15.2012C0 15.5666 0.2547 15.8826 0.611755 15.9604L2.61008 16.3948C2.78384 16.9268 2.99907 17.4457 3.25317 17.9456L2.1469 19.6664C1.94933 19.9739 1.99277 20.3776 2.25104 20.6358L5.36417 23.749C5.62244 24.0072 6.02611 24.0507 6.33357 23.8531L8.05438 22.7468C8.55426 23.0009 9.07318 23.2162 9.60519 23.3899L10.0396 25.3882C10.1172 25.7453 10.4334 26 10.7988 26H15.2012C15.5666 26 15.8828 25.7453 15.9604 25.3882L16.3948 23.3899C16.9268 23.2162 17.4457 23.0009 17.9456 22.7468L19.6664 23.8531C19.9739 24.0507 20.3776 24.0074 20.6358 23.749L23.749 20.6358C24.0072 20.3776 24.0507 19.9739 23.8531 19.6664L22.7468 17.9456C23.0009 17.4457 23.2162 16.9268 23.3899 16.3948L25.3882 15.9604C25.7453 15.8826 26 15.5666 26 15.2012V10.7988C26 10.4334 25.7453 10.1174 25.3882 10.0396ZM24.4462 14.575L22.6139 14.9733C22.3324 15.0346 22.1079 15.2465 22.0305 15.5238C21.8292 16.246 21.5396 16.9445 21.1698 17.5997C21.0282 17.8506 21.0369 18.1593 21.1928 18.4017L22.2075 19.9798L19.98 22.2075L18.4017 21.1928C18.1593 21.0369 17.8506 21.0282 17.5999 21.1698C16.9445 21.5396 16.246 21.8292 15.5238 22.0305C15.2465 22.1079 15.0346 22.3324 14.9733 22.6139L14.575 24.4462H11.425L11.0267 22.6139C10.9654 22.3324 10.7535 22.1079 10.4762 22.0305C9.75397 21.8292 9.05553 21.5396 8.40033 21.1698C8.1494 21.0282 7.84074 21.0371 7.59834 21.1928L6.02016 22.2075L3.79272 19.9798L4.80716 18.4017C4.96307 18.1593 4.972 17.8506 4.83037 17.5997C4.46062 16.9445 4.17101 16.246 3.96947 15.5238C3.89211 15.2465 3.66776 15.0346 3.38628 14.9733L1.55379 14.575V11.425L3.38608 11.0267C3.66756 10.9654 3.89211 10.7535 3.96947 10.4762C4.17081 9.75397 4.46042 9.05553 4.83017 8.40033C4.9718 8.1494 4.96307 7.84074 4.80716 7.59834L3.79253 6.02016L6.01996 3.79253L7.59834 4.80716C7.84074 4.96307 8.1494 4.9718 8.40013 4.83017C9.05553 4.46042 9.75397 4.17081 10.4762 3.96947C10.7535 3.89211 10.9654 3.66756 11.0267 3.38608L11.425 1.55379H14.575L14.9733 3.38608C15.0346 3.66756 15.2465 3.89211 15.5238 3.96947C16.246 4.17081 16.9445 4.46042 17.5997 4.83017C17.8506 4.9718 18.1593 4.96288 18.4017 4.80716L19.9798 3.79253L22.2073 6.02016L21.1928 7.59834C21.0369 7.84074 21.028 8.1494 21.1696 8.40033C21.5396 9.05553 21.829 9.75397 22.0305 10.4762C22.1079 10.7535 22.3322 10.9654 22.6137 11.0267L24.4462 11.425V14.575Z" fill="#999999"/>
</svg>