<svg width="29" height="18" viewBox="0 0 29 18" fill="none" xmlns="http://www.w3.org/2000/svg">
<path d="M22.7406 12.342C22.1754 11.1636 20.1533 9.52788 18.1997 7.94744C17.11 7.0666 16.0804 6.2338 15.424 5.5774C15.2596 5.4118 15.0136 5.35898 14.7964 5.437C14.392 5.58342 14.1424 5.6962 13.9456 5.78379C13.6456 5.91817 13.5448 5.96379 13.1404 6.00457C12.9616 6.02257 12.8008 6.1186 12.7012 6.26738C11.8527 7.53579 10.9743 7.42779 10.3875 7.23102C10.2003 7.16864 10.1667 7.0882 10.1487 7.01142C10.0227 6.48462 10.6551 5.25817 11.4747 4.43853C13.4248 2.48729 14.4304 1.99885 16.5545 2.9481C18.9641 4.02571 21.3786 4.86936 21.4026 4.87775C21.7182 4.98693 22.0578 4.82133 22.167 4.50812C22.275 4.19491 22.1106 3.8529 21.7974 3.74372C21.7733 3.73534 19.4069 2.9085 17.0452 1.85125C14.2936 0.6212 12.7839 1.43122 10.6275 3.58891C9.80664 4.40973 8.6918 6.07056 8.9798 7.28863C9.10339 7.80704 9.46823 8.19107 10.0106 8.36983C11.3703 8.81867 12.6111 8.38902 13.5351 7.16262C13.9167 7.10384 14.1243 7.01744 14.4363 6.87703C14.5491 6.82663 14.6811 6.76785 14.8563 6.69703C15.5428 7.34145 16.4692 8.09145 17.4448 8.87987C19.2088 10.3067 21.2093 11.9244 21.6593 12.8604C21.8813 13.3224 21.6425 13.6236 21.4805 13.7616C21.2429 13.9656 20.9177 14.0304 20.7413 13.9068C20.5469 13.7736 20.2937 13.7652 20.0933 13.8852C19.8917 14.0052 19.7789 14.232 19.8041 14.4648C19.8449 14.8464 19.4957 15.0648 19.3445 15.1404C18.9604 15.3348 18.5596 15.3012 18.4096 15.162C18.2416 15.006 18.0004 14.9604 17.7868 15.0396C17.5732 15.12 17.4244 15.3168 17.4028 15.5448C17.3668 15.9384 17.0752 16.3164 16.6947 16.464C16.5111 16.5336 16.2447 16.5756 16.0059 16.3572C15.8572 16.2228 15.6507 16.1712 15.4575 16.218C15.262 16.266 15.1047 16.4076 15.0363 16.596C15.0136 16.656 14.9619 16.8 14.4003 16.8C14.0007 16.8 13.2819 16.53 12.9303 16.2972C12.5091 16.02 9.86779 14.0495 7.58657 12.1391C7.26616 11.8691 6.71175 11.2906 6.22213 10.7794C5.7877 10.3258 5.39051 9.91422 5.18649 9.74141C4.93088 9.52541 4.55287 9.55781 4.34047 9.81223C4.12688 10.0654 4.15804 10.4447 4.41129 10.6583C4.59731 10.8155 4.95732 11.1958 5.35451 11.6099C5.88974 12.1691 6.44292 12.7475 6.81497 13.0595C9.04944 14.9304 11.7351 16.95 12.2703 17.3016C12.7119 17.592 13.6635 18 14.4004 18C14.992 18 15.4468 17.8644 15.7624 17.5992C16.1848 17.7637 16.6648 17.7648 17.1268 17.5848C17.6728 17.3736 18.1216 16.9476 18.376 16.4316C18.8488 16.5324 19.3901 16.4616 19.8821 16.2144C20.3633 15.972 20.7113 15.6012 20.8841 15.168C21.3617 15.1932 21.8537 15.024 22.2605 14.6748C22.9494 14.0856 23.139 13.1688 22.7406 12.342Z" fill="#999999"/>
<path d="M12.0003 2.39941H6.60016C6.26895 2.39941 6.00012 2.66824 6.00012 2.99945C6.00012 3.33066 6.26895 3.59948 6.60016 3.59948H12.0003C12.3315 3.59948 12.6003 3.33066 12.6003 2.99945C12.6003 2.66824 12.3315 2.39941 12.0003 2.39941Z" fill="#999999"/>
<path d="M24.4986 11.0651C24.3126 10.7903 23.9406 10.7147 23.6658 10.9019L21.9114 12.0803C21.6366 12.2651 21.5633 12.6383 21.7482 12.9131C21.8646 13.0848 22.0542 13.1784 22.2474 13.1784C22.3614 13.1784 22.4778 13.146 22.581 13.0764L24.3355 11.898C24.6102 11.7131 24.6834 11.3399 24.4986 11.0651Z" fill="#999999"/>
<path d="M20.7737 13.9284C20.3441 13.59 18.4229 11.6232 17.2348 10.3848C17.0056 10.1447 16.6252 10.1364 16.3864 10.3668C16.1464 10.596 16.1392 10.9764 16.3684 11.2152C16.6768 11.5368 19.3972 14.3725 20.0297 14.8717C20.1389 14.9581 20.2709 15.0001 20.4005 15.0001C20.5769 15.0001 20.7533 14.9209 20.8733 14.7709C21.0785 14.5117 21.0342 14.1336 20.7737 13.9284Z" fill="#999999"/>
<path d="M18.376 15.1322C17.6572 14.5573 15.8512 12.6385 15.4431 12.1945C15.2175 11.9497 14.8395 11.9353 14.5947 12.1585C14.3511 12.3829 14.3343 12.7633 14.5587 13.0069C14.5803 13.0297 16.7356 15.3566 17.626 16.0694C17.7364 16.157 17.8696 16.2002 18.0004 16.2002C18.1756 16.2002 18.3508 16.1222 18.4696 15.9758C18.6761 15.7166 18.6341 15.3386 18.376 15.1322Z" fill="#999999"/>
<path d="M7.01298 1.36407C5.98453 0.389626 1.87205 0.0739988 0.636035 0.000815681C0.465649 -0.00756578 0.308427 0.0487984 0.188442 0.16282C0.0684017 0.275604 0 0.434008 0 0.599612V11.3999C0 11.7311 0.268826 11.9999 0.600034 11.9999H4.20013C4.45933 11.9999 4.68974 11.8331 4.77012 11.5859C4.8577 11.3171 6.92539 4.97136 7.19776 1.85126C7.2134 1.66884 7.14618 1.48883 7.01298 1.36407ZM3.7621 10.7999H1.20001V1.24285C3.12848 1.39523 5.20933 1.72644 5.96535 2.09365C5.64736 4.72172 4.20851 9.39104 3.7621 10.7999Z" fill="#999999"/>
<path d="M28.2007 1.19971C23.4894 1.19971 20.8757 2.40574 20.7665 2.45614C20.6105 2.52932 20.4941 2.66494 20.4461 2.82937C20.3981 2.99379 20.4221 3.17019 20.5121 3.31656C21.2537 4.51061 23.5758 11.142 24.0222 12.7596C24.0942 13.02 24.3306 13.2 24.6006 13.2H28.2007C28.5319 13.2 28.8007 12.9312 28.8007 12.6V1.79968C28.8007 1.4673 28.5319 1.19971 28.2007 1.19971ZM27.6007 12H25.0494C24.4806 10.1471 22.8006 5.31579 21.8634 3.31898C22.779 3.00819 24.7458 2.47414 27.6007 2.40698V12Z" fill="#999999"/>
</svg>
