<svg width="33" height="33" viewBox="0 0 33 33" fill="none" xmlns="http://www.w3.org/2000/svg">
<circle cx="16.2335" cy="16.2335" r="16.2335" fill="#FDCA40"/>
<path d="M8.14288 21.6392H15.4014V19.8792H11.1258V19.8096L12.6123 18.3529C14.7054 16.4438 15.2672 15.4893 15.2672 14.3309C15.2672 12.566 13.8254 11.3181 11.6429 11.3181C9.50509 11.3181 8.03847 12.5958 8.04344 14.5944H10.0868C10.0818 13.62 10.6983 13.0234 11.628 13.0234C12.5228 13.0234 13.189 13.5802 13.189 14.4751C13.189 15.2855 12.6919 15.8423 11.7672 16.7322L8.14288 20.088V21.6392ZM20.96 21.7784C23.227 21.7784 24.7682 20.3018 24.7633 18.2436C24.7682 16.2947 23.406 14.8927 21.5715 14.8927C20.6766 14.8927 19.906 15.2656 19.5481 15.7677H19.4884L19.7519 13.2173H24.2015V11.4573H17.977L17.4948 16.8267L19.4088 17.1697C19.7221 16.7471 20.3286 16.4836 20.9302 16.4836C21.9543 16.4886 22.6901 17.2294 22.6901 18.2983C22.6901 19.3572 21.9692 20.088 20.96 20.088C20.1049 20.088 19.4138 19.5511 19.3641 18.7606H17.276C17.3158 20.5206 18.852 21.7784 20.96 21.7784Z" fill="#184177"/>
</svg>
