<svg width="26" height="26" viewBox="0 0 26 26" fill="none" xmlns="http://www.w3.org/2000/svg">
<g clip-path="url(#clip0)">
<path d="M25.1868 12.1879H14.8954C14.4469 12.1879 14.0829 11.824 14.0829 11.3755C14.0829 10.927 14.4469 10.563 14.8954 10.563H25.1868C25.6353 10.563 25.9993 10.927 25.9993 11.3755C25.9993 11.824 25.6353 12.1879 25.1868 12.1879Z" fill="white"/>
<path d="M21.1245 16.2502C20.9165 16.2502 20.7086 16.171 20.5503 16.0119C20.2329 15.6944 20.2329 15.1798 20.5503 14.8624L24.0386 11.3743L20.5503 7.886C20.2329 7.56863 20.2329 7.05409 20.5503 6.73671C20.8679 6.41914 21.3824 6.41914 21.6998 6.73671L25.7622 10.7991C26.0795 11.1165 26.0795 11.631 25.7622 11.9484L21.6998 16.0107C21.5405 16.171 21.3326 16.2502 21.1245 16.2502Z" fill="white"/>
<path d="M8.66646 26.0002C8.43458 26.0002 8.2146 25.9676 7.99482 25.8994L1.47539 23.7274C0.58833 23.4175 0 22.591 0 21.667V2.16764C0 0.972733 0.971756 0.000976562 2.16667 0.000976562C2.39835 0.000976562 2.61833 0.0335073 2.83831 0.101742L9.35754 2.27376C10.2448 2.5836 10.8329 3.41016 10.8329 4.33411V23.8335C10.8329 25.0284 9.86137 26.0002 8.66646 26.0002ZM2.16667 1.62593C1.86873 1.62593 1.62495 1.86971 1.62495 2.16764V21.667C1.62495 21.8977 1.77987 22.1122 2.00084 22.1891L8.48973 24.3514C8.53634 24.3665 8.59704 24.3752 8.66646 24.3752C8.9644 24.3752 9.20798 24.1314 9.20798 23.8335V4.33411C9.20798 4.10342 9.05306 3.88899 8.83209 3.81203L2.3432 1.64973C2.29659 1.63465 2.23589 1.62593 2.16667 1.62593Z" fill="white"/>
<path d="M16.5204 8.66744C16.0719 8.66744 15.7079 8.30345 15.7079 7.85497V2.98012C15.7079 2.2337 15.1003 1.62593 14.3539 1.62593H2.16678C1.7183 1.62593 1.35431 1.26194 1.35431 0.813451C1.35431 0.364964 1.7183 0.000976562 2.16678 0.000976562H14.3539C15.9973 0.000976562 17.3328 1.33672 17.3328 2.98012V7.85497C17.3328 8.30345 16.9689 8.66744 16.5204 8.66744Z" fill="white"/>
<path d="M14.354 22.7499H10.0207C9.57218 22.7499 9.20819 22.386 9.20819 21.9375C9.20819 21.489 9.57218 21.125 10.0207 21.125H14.354C15.1004 21.125 15.708 20.5172 15.708 19.7708V14.896C15.708 14.4475 16.072 14.0835 16.5205 14.0835C16.9689 14.0835 17.3329 14.4475 17.3329 14.896V19.7708C17.3329 21.4142 15.9974 22.7499 14.354 22.7499Z" fill="white"/>
</g>
<defs>
<clipPath id="clip0">
<rect width="26" height="26" fill="white"/>
</clipPath>
</defs>
</svg>
