<svg width="26" height="26" viewBox="0 0 26 26" fill="none" xmlns="http://www.w3.org/2000/svg">
<path fill-rule="evenodd" clip-rule="evenodd" d="M17.4077 16.3522H18.582L26 23.785L23.785 26L16.3522 18.582V17.4077L15.9508 16.9914C14.2561 18.4483 12.056 19.3253 9.66266 19.3253C4.3259 19.3253 0 14.9994 0 9.66266C0 4.3259 4.3259 0 9.66266 0C14.9994 0 19.3253 4.3259 19.3253 9.66266C19.3253 12.056 18.4483 14.2561 16.9914 15.9508L17.4077 16.3522ZM2.97314 9.66258C2.97314 13.3641 5.96114 16.3521 9.66268 16.3521C13.3642 16.3521 16.3522 13.3641 16.3522 9.66258C16.3522 5.96103 13.3642 2.97304 9.66268 2.97304C5.96114 2.97304 2.97314 5.96103 2.97314 9.66258Z" fill="#2767BC"/>
</svg>
