<svg width="48" height="48" viewBox="0 0 48 48" fill="none" xmlns="http://www.w3.org/2000/svg">
<path fill-rule="evenodd" clip-rule="evenodd" d="M30 4H12C10.34 4 8.92 5 8.32 6.44L2.28 20.54C2.1 21 2 21.48 2 22V26C2 28.2 3.8 30 6 30H18.62L16.72 39.14L16.66 39.78C16.66 40.6 17 41.36 17.54 41.9H23.5L32.84 30.82C33.56 30.1 34 29.1 34 28V8C34 5.8 32.2 4 30 4ZM30 28L23.5 36.5H21.5L24 26H6V22L12 8H30V28ZM40 4C38.8954 4 38 4.89543 38 6V26C38 27.1046 38.8954 28 40 28H44C45.1046 28 46 27.1046 46 26V6C46 4.89543 45.1046 4 44 4H40Z" fill="#E8483D"/>
</svg>
