<svg width="48" height="48" viewBox="0 0 48 48" fill="none" xmlns="http://www.w3.org/2000/svg">
<path fill-rule="evenodd" clip-rule="evenodd" d="M18 44.0001H36C37.66 44.0001 39.08 43.0001 39.68 41.5601L45.72 27.4601C45.9 27.0001 46 26.5201 46 26.0001V22.0001C46 19.8001 44.2 18.0001 42 18.0001H29.38L31.28 8.8601L31.34 8.2201C31.34 7.4001 31 6.6401 30.46 6.1001H24.5L15.16 17.1801C14.44 17.9001 14 18.9001 14 20.0001V40.0001C14 42.2001 15.8 44.0001 18 44.0001ZM18 20L25 11.32H26.68L24 22H42V26L36 40H18V20ZM4 20.0001C2.89543 20.0001 2 20.8955 2 22.0001V42.0001C2 43.1047 2.89543 44.0001 4 44.0001H8C9.10457 44.0001 10 43.1047 10 42.0001V22.0001C10 20.8955 9.10457 20.0001 8 20.0001H4Z" fill="#4DB952"/>
</svg>
